<svg xmlns="http://www.w3.org/2000/svg" width="250" height="59" fill="none" viewBox="0 0 250 59">
<!-- SVG created with Arrow, by QuiverAI (https://quiver.ai) -->
  <path d="m249.9 0h-249.8v58.91h249.8v-58.91z" fill="url(#paint0_radial_171_2014)"/>
  <path d="m246.6 7.41c-1.87-3.48-8.42-3.45-10.83-3.45l-175.6 1.31c-11.5 0-25.22 1.97-29.98 11.33-1.23 2.63-1.88 5.12-4.21 8.64-2.87 4.45-9.78 11.4-10.34 15.14-1.48 9.9 11.56 11.37 23.33 12.06 17.76 1.09 50.47 0.01 69.46-0.68 27.48-1.03 46.56-2.89 66.97-2.89 14.59 0 31.53 0.24 47.77-0.06 9.26-0.18 13.27-2.72 16.64-12.48l6.83-20.6c1.09-3.04 1.19-5.87-0.04-8.32z" fill="url(#paint1_radial_171_2014)"/>
  <path d="m244.7 7.71c-1.96-2.75-7.02-2.93-11.64-3l-176 0.9c-12.46 0-22.1 3.51-25.45 10.88-1.87 4.33-2.82 6.48-5.45 10.18-2.97 4.27-7.74 9.94-7.74 13.44 0 8.39 9.29 9.87 20.09 10.64 15.73 1.26 37.74 0.64 55.6 0 22.63-0.73 57.35-3.14 75.61-3.14l52.49-0.7c9.26 0 13.41-1.75 16.88-11.95l6.52-18.88c1.09-3.05 1.09-5.87-0.93-8.37z" fill="url(#paint2_linear_171_2014)"/>
  <path d="m242.9 8.14c-1.83-2.08-6.83-2.39-10.51-2.43l-174.8 0.87c-11.89 0-20.8 3.4-23.95 10.36-1.93 4.34-3.15 6.71-5.44 10.17-2.66 4.16-6.6 8.08-6.46 11.51 0.26 6.36 8.39 8.43 17.65 9.56 13.48 1.7 33.23 1.05 49.31 0.23 17.39-0.9 58.16-2.55 74.99-2.8l58.73-0.34c8.29 0 12.95-1.72 15.94-11.04l6.52-18.15c1.19-3.32 0.41-5.9-2.01-7.94z" fill="#050A14"/>
  <path d="m235.5 44.64c-1.68 0-2.05 1.24-2.05 2.17 0 1.24 0.85 1.86 2.05 1.86 1.37 0 2.05-0.86 2.05-1.94 0-1.12-0.77-2.09-2.05-2.09z" fill="url(#paint3_radial_171_2014)"/>
  <path d="m235.5 45.34c-0.88 0-1.25 0.64-1.25 1.37 0 0.75 0.54 1.25 1.25 1.25 0.93 0 1.35-0.6 1.35-1.3 0-0.71-0.53-1.32-1.35-1.32z" fill="#FEFFFF"/>
  <path d="m73.86 14.8-6.25 4.67c-1.72-2.1-4.98-3.08-9.49-3.08-3.6 0-6.94 0.82-7.47 2.82-0.44 1.58 1.95 2.16 6.72 2.61 8.34 0.71 13.59 1.54 12.7 7.31-1.25 7.79-10.16 9.65-18.38 9.48-5.81-0.12-10.96-1.3-16.75-3.91l6.52-5.29c3.31 2.4 7.16 3.4 11.99 3.4 3.6 0 7.46-0.92 7.88-3.04 0.38-1.81-1.78-2.26-6.81-2.75-7.97-0.78-13.51-2.05-12.47-7.55 1.27-6.78 9.69-9.01 17.75-8.96 5.85 0.05 9.83 0.87 14.06 4.29z" fill="url(#paint4_linear_171_2014)"/>
  <path d="m100.4 26.14c-0.77 7.18-7.39 12.59-17.17 12.59-8.39 0-11.99-3.69-11.32-9.03 0.89-6.77 7.36-11.5 17.14-11.5 7.7 0 11.94 2.83 11.35 7.94zm-19.51 3.08c-0.43 2.89 1.29 4.42 4.79 4.42 4.66 0 7.49-3.63 7.65-6.74 0.21-2.67-1.66-4.08-4.81-4.08-4.57 0-7.26 3.63-7.63 6.4z" fill="url(#paint5_linear_171_2014)"/>
  <path d="m115.7 10.74-8.86 27.14h-7.59l8.39-27.14h8.06z" fill="url(#paint6_linear_171_2014)"/>
  <path d="m137.3 11.01c8.63 0 10.61 3.11 9.57 8.15-1.04 5-4.91 7.57-9.84 8.56l5.4 10.16h-9.68l-4.88-9.67h-4.41l-2.88 9.67h-8.34l8.29-26.87h16.77zm-10.22 5.05-2.2 7.57h7.87c3.65 0 5.9-1.91 6.11-4.37 0.22-2.12-1.13-3.2-4.18-3.2h-7.6z" fill="url(#paint7_linear_171_2014)"/>
  <path d="m156.8 18.54-3.21 10.37c-0.94 3.16-0.05 4.63 2.88 4.63 3.41 0 5.66-2.01 6.91-6.19l2.93-8.81h6.68l-6.36 19.34h-6.53l0.73-2.67c-2.49 2.15-5.08 3.18-8.49 3.18-6.51 0-9.14-2.77-7.17-9.11l3.66-10.74h7.97z" fill="url(#paint8_linear_171_2014)"/>
  <path d="m203.8 11.01-8.39 26.87h-7.14l0.72-2.93c-2.38 2.23-5.21 3.44-9.02 3.44-6.73 0-9.71-3.38-8.62-9 1.26-6.63 7.01-11.19 14.61-11.19 3.8 0 6.15 1.18 7.46 3.09l2.93-10.28h7.45zm-23.72 18.06c-0.53 2.94 1.04 4.57 4.5 4.57 4.67 0 7.16-3.79 7.32-6.85 0.16-2.51-1.41-4.03-4.51-4.03-4.4 0-6.79 3.58-7.31 6.31z" fill="url(#paint9_linear_171_2014)"/>
  <path d="m234.5 11.01-8.96 27.38h-7.45l0.77-2.98c-2.49 2.12-5.27 2.98-8.92 2.98-6.73 0-9.71-3.38-8.62-9 1.26-6.63 7.01-11.19 14.61-11.19 3.75 0 5.67 0.96 7.09 2.71l3.03-9.9h8.45zm-25.6 18.06c-0.52 2.94 1.2 4.35 4.41 4.35 4.3 0 7.03-3.46 7.3-6.85 0.21-2.46-1.41-3.92-4.51-3.92-4.4 0-6.7 3.69-7.2 6.42z" fill="url(#paint10_linear_171_2014)"/>
  <path d="m77.58 4.81-0.46 0.8 0.41 0.72 0.78-0.72-0.73-0.8z" fill="url(#paint11_radial_171_2014)"/>
  <defs>
    <radialGradient id="paint0_radial_171_2014" cx="0" cy="0" r="1" gradientTransform="translate(125 29.45) scale(169.7 169.4)" gradientUnits="userSpaceOnUse">
      <stop stop-color="#001223" offset="0"/>
      <stop stop-color="#080B14" offset=".4844"/>
      <stop stop-color="#080B14" offset="1"/>
    </radialGradient>
    <radialGradient id="paint1_radial_171_2014" cx="0" cy="0" r="1" gradientTransform="translate(131.6 28.47) scale(89.92 89.78)" gradientUnits="userSpaceOnUse">
      <stop stop-color="#001223" offset="0"/>
      <stop stop-color="#005A82" offset=".526"/>
      <stop stop-color="#001223" offset=".9531"/>
    </radialGradient>
    <linearGradient id="paint2_linear_171_2014" x1="17.95" x2="246.2" y1="28.3" y2="28.3" gradientUnits="userSpaceOnUse">
      <stop stop-color="#7FFFF8" offset="0"/>
      <stop stop-color="#00E6FF" offset=".25"/>
      <stop stop-color="#7FFFF8" offset=".75"/>
      <stop stop-color="#7FFFF8" offset="1"/>
    </linearGradient>
    <radialGradient id="paint3_radial_171_2014" cx="0" cy="0" r="1" gradientTransform="translate(235.5 46.65) scale(2.335 2.331)" gradientUnits="userSpaceOnUse">
      <stop stop-color="#00E6FF" offset="0"/>
      <stop stop-color="#003246" offset="1"/>
    </radialGradient>
    <linearGradient id="paint4_linear_171_2014" x1="54.66" x2="54.66" y1="10.51" y2="38.65" gradientUnits="userSpaceOnUse">
      <stop stop-color="#97FEFF" offset="0"/>
      <stop stop-color="#14CCF2" offset="1"/>
    </linearGradient>
    <linearGradient id="paint5_linear_171_2014" x1="86.18" x2="86.18" y1="18.2" y2="38.73" gradientUnits="userSpaceOnUse">
      <stop stop-color="#78FEFF" offset="0"/>
      <stop stop-color="#14CCF2" offset="1"/>
    </linearGradient>
    <linearGradient id="paint6_linear_171_2014" x1="107.5" x2="107.5" y1="10.74" y2="37.88" gradientUnits="userSpaceOnUse">
      <stop stop-color="#97FEFF" offset="0"/>
      <stop stop-color="#14CCF2" offset="1"/>
    </linearGradient>
    <linearGradient id="paint7_linear_171_2014" x1="129.9" x2="129.9" y1="11.01" y2="37.88" gradientUnits="userSpaceOnUse">
      <stop stop-color="#FDFDFD" offset="0"/>
      <stop stop-color="#DFE2E5" offset="1"/>
    </linearGradient>
    <linearGradient id="paint8_linear_171_2014" x1="157.6" x2="157.6" y1="18.54" y2="38.39" gradientUnits="userSpaceOnUse">
      <stop stop-color="#FDFDFD" offset="0"/>
      <stop stop-color="#DFE2E5" offset="1"/>
    </linearGradient>
    <linearGradient id="paint9_linear_171_2014" x1="187.4" x2="187.4" y1="11.01" y2="38.39" gradientUnits="userSpaceOnUse">
      <stop stop-color="#FDFDFD" offset="0"/>
      <stop stop-color="#DFE2E5" offset="1"/>
    </linearGradient>
    <linearGradient id="paint10_linear_171_2014" x1="217.7" x2="217.7" y1="11.01" y2="38.39" gradientUnits="userSpaceOnUse">
      <stop stop-color="#FDFDFD" offset="0"/>
      <stop stop-color="#DFE2E5" offset="1"/>
    </linearGradient>
    <radialGradient id="paint11_radial_171_2014" cx="0" cy="0" r="1" gradientTransform="translate(77.64 5.568) scale(.8863 .8852)" gradientUnits="userSpaceOnUse">
      <stop stop-color="#FEFFFF" offset="0"/>
      <stop stop-color="#FEFFFF" stop-opacity=".25" offset="1"/>
    </radialGradient>
  </defs>
</svg>