<svg width="1536" height="1024" viewBox="0 0 1536 1024" fill="none" xmlns="http://www.w3.org/2000/svg">
  <defs>
    <linearGradient id="bg" x1="160" y1="84" x2="1388" y2="912" gradientUnits="userSpaceOnUse">
      <stop stop-color="#07101C"/>
      <stop offset="0.52" stop-color="#050913"/>
      <stop offset="1" stop-color="#030306"/>
    </linearGradient>
    <linearGradient id="panelStroke" x1="0" y1="0" x2="1" y2="1">
      <stop stop-color="rgba(145, 220, 255, 0.72)"/>
      <stop offset="1" stop-color="rgba(145, 220, 255, 0.08)"/>
    </linearGradient>
    <linearGradient id="cyanLine" x1="0" y1="0" x2="1" y2="0">
      <stop stop-color="#38E0FF"/>
      <stop offset="1" stop-color="#4DA3FF"/>
    </linearGradient>
    <linearGradient id="blockGlow" x1="0" y1="0" x2="1" y2="1">
      <stop stop-color="#122132"/>
      <stop offset="1" stop-color="#0A1220"/>
    </linearGradient>
    <radialGradient id="cyanBloom" cx="0" cy="0" r="1" gradientUnits="userSpaceOnUse" gradientTransform="translate(768 516) rotate(90) scale(384 620)">
      <stop stop-color="#1ACDFF" stop-opacity="0.22"/>
      <stop offset="1" stop-color="#1ACDFF" stop-opacity="0"/>
    </radialGradient>
    <radialGradient id="leftBloom" cx="0" cy="0" r="1" gradientUnits="userSpaceOnUse" gradientTransform="translate(368 420) rotate(26) scale(344 300)">
      <stop stop-color="#53C8FF" stop-opacity="0.16"/>
      <stop offset="1" stop-color="#53C8FF" stop-opacity="0"/>
    </radialGradient>
    <filter id="softGlow" x="-40%" y="-40%" width="180%" height="180%">
      <feGaussianBlur stdDeviation="14"/>
    </filter>
    <filter id="panelGlow" x="-10%" y="-10%" width="120%" height="120%">
      <feDropShadow dx="0" dy="0" stdDeviation="22" flood-color="#1BCFFF" flood-opacity="0.18"/>
    </filter>
    <pattern id="grid" width="48" height="48" patternUnits="userSpaceOnUse">
      <path d="M48 0H0V48" stroke="#8EC8FF" stroke-opacity="0.08"/>
    </pattern>
    <pattern id="microGrid" width="12" height="12" patternUnits="userSpaceOnUse">
      <path d="M12 0H0V12" stroke="#8EC8FF" stroke-opacity="0.035"/>
    </pattern>
  </defs>

  <rect width="1536" height="1024" fill="url(#bg)"/>
  <rect width="1536" height="1024" fill="url(#grid)"/>
  <rect width="1536" height="1024" fill="url(#microGrid)"/>
  <rect width="1536" height="1024" fill="url(#cyanBloom)"/>
  <rect width="1536" height="1024" fill="url(#leftBloom)"/>

  <g opacity="0.5">
    <path d="M107 177H585" stroke="url(#cyanLine)" stroke-opacity="0.18"/>
    <path d="M945 179H1412" stroke="url(#cyanLine)" stroke-opacity="0.18"/>
    <path d="M108 832H508" stroke="url(#cyanLine)" stroke-opacity="0.12"/>
    <path d="M1038 827H1414" stroke="url(#cyanLine)" stroke-opacity="0.12"/>
  </g>

  <g filter="url(#softGlow)" opacity="0.8">
    <circle cx="775" cy="505" r="116" fill="#2AD6FF" fill-opacity="0.14"/>
    <circle cx="621" cy="530" r="52" fill="#54BFFF" fill-opacity="0.18"/>
    <circle cx="968" cy="493" r="66" fill="#54BFFF" fill-opacity="0.16"/>
  </g>

  <g filter="url(#panelGlow)">
    <rect x="160" y="208" width="448" height="590" rx="26" fill="#07111E" fill-opacity="0.86"/>
    <rect x="160.75" y="208.75" width="446.5" height="588.5" rx="25.25" stroke="#90DBFF" stroke-opacity="0.18" stroke-width="1.5"/>
    <rect x="928" y="185" width="448" height="640" rx="28" fill="#07101B" fill-opacity="0.9"/>
    <rect x="928.75" y="185.75" width="446.5" height="638.5" rx="27.25" stroke="#9CDFFF" stroke-opacity="0.2" stroke-width="1.5"/>
  </g>

  <g opacity="0.95">
    <rect x="204" y="250" width="180" height="24" rx="12" fill="#0D1B2B"/>
    <circle cx="225" cy="262" r="6" fill="#1CD5FF"/>
    <rect x="242" y="257" width="118" height="9" rx="4.5" fill="#6BD8FF" fill-opacity="0.78"/>

    <rect x="204" y="316" width="280" height="20" rx="10" fill="#D9F6FF" fill-opacity="0.92"/>
    <rect x="204" y="352" width="348" height="12" rx="6" fill="#78D7FF" fill-opacity="0.56"/>
    <rect x="204" y="382" width="322" height="12" rx="6" fill="#78D7FF" fill-opacity="0.34"/>
    <rect x="204" y="412" width="296" height="12" rx="6" fill="#78D7FF" fill-opacity="0.34"/>

    <rect x="204" y="474" width="250" height="14" rx="7" fill="#9BE6FF" fill-opacity="0.62"/>
    <rect x="204" y="505" width="330" height="11" rx="5.5" fill="#7AD8FF" fill-opacity="0.30"/>
    <rect x="204" y="531" width="300" height="11" rx="5.5" fill="#7AD8FF" fill-opacity="0.22"/>

    <circle cx="220" cy="598" r="7" fill="#35DAFF"/>
    <rect x="241" y="592" width="210" height="12" rx="6" fill="#8CE1FF" fill-opacity="0.46"/>
    <circle cx="220" cy="642" r="7" fill="#35DAFF"/>
    <rect x="241" y="636" width="258" height="12" rx="6" fill="#8CE1FF" fill-opacity="0.38"/>
    <circle cx="220" cy="686" r="7" fill="#35DAFF"/>
    <rect x="241" y="680" width="188" height="12" rx="6" fill="#8CE1FF" fill-opacity="0.30"/>

    <rect x="204" y="735" width="122" height="20" rx="10" fill="#0F2236"/>
    <rect x="217" y="741" width="94" height="8" rx="4" fill="#41D8FF" fill-opacity="0.85"/>
  </g>

  <g opacity="0.85">
    <rect x="334" y="760" width="201" height="12" rx="6" fill="#68BFFF" fill-opacity="0.18"/>
    <rect x="356" y="186" width="116" height="12" rx="6" fill="#68BFFF" fill-opacity="0.13"/>
  </g>

  <g>
    <path d="M608 431C690 431 700 440 754 440C809 440 815 398 888 398" stroke="url(#cyanLine)" stroke-width="4" stroke-linecap="round"/>
    <path d="M608 531C700 531 699 535 758 535C818 535 825 566 888 566" stroke="url(#cyanLine)" stroke-width="4" stroke-linecap="round"/>
    <path d="M608 653C696 653 711 650 770 650C837 650 840 646 886 646" stroke="url(#cyanLine)" stroke-width="4" stroke-linecap="round" stroke-opacity="0.72"/>

    <path d="M715 438C742 438 734 492 768 492C804 492 801 429 834 429C862 429 870 457 888 457" stroke="#E3FAFF" stroke-opacity="0.7" stroke-width="2.6" stroke-linecap="round"/>
    <path d="M715 538C746 538 732 507 771 507C810 507 802 540 832 540C861 540 871 527 888 527" stroke="#D7F5FF" stroke-opacity="0.52" stroke-width="2.4" stroke-linecap="round"/>

    <circle cx="648" cy="431" r="7" fill="#DDF8FF"/>
    <circle cx="754" cy="440" r="7" fill="#DDF8FF"/>
    <circle cx="836" cy="429" r="7" fill="#DDF8FF"/>
    <circle cx="688" cy="531" r="7" fill="#6FDBFF"/>
    <circle cx="771" cy="507" r="7" fill="#DDF8FF"/>
    <circle cx="832" cy="540" r="7" fill="#6FDBFF"/>
    <circle cx="742" cy="653" r="7" fill="#6FDBFF"/>
    <circle cx="816" cy="646" r="7" fill="#DDF8FF"/>
  </g>

  <g opacity="0.94">
    <rect x="973" y="236" width="194" height="120" rx="20" fill="url(#blockGlow)"/>
    <rect x="973.75" y="236.75" width="192.5" height="118.5" rx="19.25" stroke="#98DDFF" stroke-opacity="0.24" stroke-width="1.5"/>
    <rect x="1005" y="270" width="92" height="14" rx="7" fill="#E2FBFF" fill-opacity="0.9"/>
    <rect x="1005" y="296" width="128" height="10" rx="5" fill="#7BD7FF" fill-opacity="0.32"/>
    <rect x="1005" y="318" width="110" height="10" rx="5" fill="#7BD7FF" fill-opacity="0.22"/>
    <rect x="1196" y="255" width="136" height="80" rx="18" fill="#102237"/>
    <rect x="1209" y="276" width="110" height="12" rx="6" fill="#43DAFF" fill-opacity="0.82"/>
    <rect x="1209" y="300" width="84" height="10" rx="5" fill="#99E8FF" fill-opacity="0.28"/>

    <rect x="973" y="386" width="360" height="138" rx="22" fill="#081321" fill-opacity="0.92"/>
    <rect x="973.75" y="386.75" width="358.5" height="136.5" rx="21.25" stroke="#98DDFF" stroke-opacity="0.24" stroke-width="1.5"/>
    <rect x="1006" y="424" width="294" height="14" rx="7" fill="#E4FBFF" fill-opacity="0.88"/>
    <rect x="1006" y="452" width="272" height="11" rx="5.5" fill="#79D8FF" fill-opacity="0.32"/>
    <rect x="1006" y="476" width="206" height="11" rx="5.5" fill="#79D8FF" fill-opacity="0.22"/>
    <rect x="1218" y="448" width="82" height="50" rx="14" fill="#11253A"/>
    <rect x="1231" y="464" width="55" height="10" rx="5" fill="#42D9FF" fill-opacity="0.76"/>

    <rect x="973" y="559" width="166" height="94" rx="18" fill="#0A1524"/>
    <rect x="973.75" y="559.75" width="164.5" height="92.5" rx="17.25" stroke="#98DDFF" stroke-opacity="0.24" stroke-width="1.5"/>
    <rect x="1170" y="559" width="163" height="94" rx="18" fill="#0A1524"/>
    <rect x="1170.75" y="559.75" width="161.5" height="92.5" rx="17.25" stroke="#98DDFF" stroke-opacity="0.24" stroke-width="1.5"/>
    <rect x="1001" y="590" width="110" height="11" rx="5.5" fill="#40DAFF" fill-opacity="0.8"/>
    <rect x="1197" y="590" width="104" height="11" rx="5.5" fill="#40DAFF" fill-opacity="0.8"/>
    <rect x="1001" y="613" width="84" height="9" rx="4.5" fill="#97E6FF" fill-opacity="0.22"/>
    <rect x="1197" y="613" width="76" height="9" rx="4.5" fill="#97E6FF" fill-opacity="0.22"/>

    <rect x="973" y="686" width="360" height="96" rx="18" fill="#0A1523"/>
    <rect x="973.75" y="686.75" width="358.5" height="94.5" rx="17.25" stroke="#98DDFF" stroke-opacity="0.24" stroke-width="1.5"/>
    <rect x="1006" y="718" width="154" height="12" rx="6" fill="#41D8FF" fill-opacity="0.82"/>
    <rect x="1006" y="742" width="250" height="9" rx="4.5" fill="#9AE8FF" fill-opacity="0.22"/>
    <rect x="1269" y="708" width="31" height="31" rx="10" fill="#12263B"/>
    <rect x="1308" y="708" width="31" height="31" rx="10" fill="#12263B"/>
    <rect x="1269" y="747" width="31" height="31" rx="10" fill="#12263B"/>
    <rect x="1308" y="747" width="31" height="31" rx="10" fill="#12263B"/>
  </g>

  <g opacity="0.75">
    <path d="M888 398H944" stroke="url(#cyanLine)" stroke-width="3.5" stroke-linecap="round"/>
    <path d="M888 457H944" stroke="#E2FAFF" stroke-opacity="0.72" stroke-width="2.4" stroke-linecap="round"/>
    <path d="M888 527H944" stroke="#E2FAFF" stroke-opacity="0.58" stroke-width="2.4" stroke-linecap="round"/>
    <path d="M888 566H944" stroke="url(#cyanLine)" stroke-width="3.5" stroke-linecap="round"/>
    <path d="M888 646H944" stroke="url(#cyanLine)" stroke-width="3.5" stroke-linecap="round" stroke-opacity="0.72"/>
  </g>

  <g opacity="0.42">
    <rect x="100" y="94" width="176" height="34" rx="17" fill="#0A1727"/>
    <rect x="112" y="106" width="56" height="10" rx="5" fill="#38E0FF" fill-opacity="0.72"/>
    <rect x="196" y="106" width="55" height="10" rx="5" fill="#DDF9FF" fill-opacity="0.18"/>

    <rect x="1234" y="104" width="202" height="34" rx="17" fill="#0A1727"/>
    <rect x="1250" y="116" width="75" height="10" rx="5" fill="#DDF9FF" fill-opacity="0.18"/>
    <rect x="1340" y="116" width="78" height="10" rx="5" fill="#38E0FF" fill-opacity="0.64"/>
  </g>
</svg>
