<svg xmlns="http://www.w3.org/2000/svg" width="1200" height="630" viewBox="0 0 1200 630" fill="none">
  <defs>
    <linearGradient id="panel" x1="73" y1="58" x2="1127" y2="572" gradientUnits="userSpaceOnUse">
      <stop stop-color="#07070F" />
      <stop offset="1" stop-color="#0B0B18" />
    </linearGradient>
    <radialGradient id="glow" cx="0" cy="0" r="1" gradientUnits="userSpaceOnUse" gradientTransform="translate(926 132) rotate(136.346) scale(358.311 261.205)">
      <stop stop-color="#00D4FF" stop-opacity=".24" />
      <stop offset="1" stop-color="#00D4FF" stop-opacity="0" />
    </radialGradient>
    <pattern id="grid" width="48" height="48" patternUnits="userSpaceOnUse">
      <path d="M48 0H0V48" stroke="#0F2130" stroke-opacity=".55" />
    </pattern>
  </defs>

  <rect width="1200" height="630" fill="#030306" />
  <rect width="1200" height="630" fill="url(#grid)" opacity=".24" />
  <rect width="1200" height="630" fill="url(#glow)" />

  <rect x="44" y="44" width="1112" height="542" rx="28" fill="url(#panel)" stroke="#1A1A24" />
  <path d="M44 138H1156" stroke="#141A22" />

  <g transform="translate(88 86)">
    <rect width="86" height="86" rx="22" fill="#030306" stroke="#1A1A24" />
    <circle cx="20" cy="16" r="4" fill="#00D4FF" />
    <path d="M24 24H39" stroke="#F0F0F8" stroke-width="8" stroke-linecap="round" />
    <path d="M24 24V39" stroke="#F0F0F8" stroke-width="8" stroke-linecap="round" />
    <path d="M24 44H39" stroke="#F0F0F8" stroke-width="8" stroke-linecap="round" />
    <path d="M39 44V62" stroke="#F0F0F8" stroke-width="8" stroke-linecap="round" />
    <path d="M24 62H39" stroke="#F0F0F8" stroke-width="8" stroke-linecap="round" />
    <path d="M48 22L40 64" stroke="#00D4FF" stroke-width="6" stroke-linecap="round" />
    <path d="M58 24V62" stroke="#F0F0F8" stroke-width="8" stroke-linecap="round" />
    <path d="M58 24H71" stroke="#F0F0F8" stroke-width="8" stroke-linecap="round" />
    <path d="M71 24V44" stroke="#F0F0F8" stroke-width="8" stroke-linecap="round" />
    <path d="M58 44H71" stroke="#F0F0F8" stroke-width="8" stroke-linecap="round" />
    <path d="M64 44L72 62" stroke="#F0F0F8" stroke-width="8" stroke-linecap="round" />
  </g>

  <text x="200" y="138" fill="#00D4FF" font-family="Menlo, Monaco, Consolas, monospace" font-size="24" letter-spacing="6">
    SOL / RUDD
  </text>

  <text x="88" y="274" fill="#F0F0F8" font-family="Arial, Helvetica, sans-serif" font-size="74" font-weight="700">
    Websites, AI products
  </text>
  <text x="88" y="352" fill="#F0F0F8" font-family="Arial, Helvetica, sans-serif" font-size="74" font-weight="700">
    &amp; agentic systems.
  </text>

  <text x="88" y="434" fill="#7A8699" font-family="Arial, Helvetica, sans-serif" font-size="30">
    Founder-led frontend systems, automation, and technical infrastructure.
  </text>

  <g transform="translate(88 490)">
    <rect width="134" height="42" rx="21" fill="#0B0B18" stroke="#1A1A24" />
    <circle cx="18" cy="21" r="4" fill="#00D4FF" />
    <text x="34" y="27" fill="#F0F0F8" font-family="Menlo, Monaco, Consolas, monospace" font-size="16" letter-spacing="2">REACT</text>

    <rect x="150" width="152" height="42" rx="21" fill="#0B0B18" stroke="#1A1A24" />
    <circle cx="168" cy="21" r="4" fill="#00D4FF" />
    <text x="184" y="27" fill="#F0F0F8" font-family="Menlo, Monaco, Consolas, monospace" font-size="16" letter-spacing="2">OPENAI</text>

    <rect x="330" width="152" height="42" rx="21" fill="#0B0B18" stroke="#1A1A24" />
    <circle cx="348" cy="21" r="4" fill="#00D4FF" />
    <text x="364" y="27" fill="#F0F0F8" font-family="Menlo, Monaco, Consolas, monospace" font-size="16" letter-spacing="2">VERCEL</text>

    <rect x="510" width="154" height="42" rx="21" fill="#0B0B18" stroke="#1A1A24" />
    <circle cx="528" cy="21" r="4" fill="#00D4FF" />
    <text x="544" y="27" fill="#F0F0F8" font-family="Menlo, Monaco, Consolas, monospace" font-size="16" letter-spacing="2">GITHUB</text>
  </g>

  <text x="1026" y="546" fill="#2E3D50" font-family="Menlo, Monaco, Consolas, monospace" font-size="18" letter-spacing="3">
    SOLRUDD.COM
  </text>
</svg>
